<svg width="36" height="34" viewBox="0 0 36 34" xmlns="http://www.w3.org/2000/svg"><title>star</title><path d="M33.456 13.626c0 .277-.164.58-.492.907l-6.862 6.692 1.626 9.452c.012.088.019.214.019.378 0 .264-.066.488-.199.67-.132.184-.324.275-.576.275-.24 0-.492-.076-.756-.227l-8.488-4.461-8.488 4.461c-.277.151-.53.227-.756.227-.265 0-.463-.091-.596-.274a1.114 1.114 0 0 1-.198-.671c0-.076.013-.202.038-.378l1.625-9.452-6.88-6.692c-.315-.34-.473-.643-.473-.907 0-.467.353-.756 1.059-.87l9.49-1.38 4.253-8.601c.239-.517.548-.775.926-.775s.687.258.926.775l4.253 8.601 9.49 1.38c.706.114 1.059.403 1.059.87z" fill="#FBC100" fill-rule="evenodd"/></svg>