<?xml version="1.0" encoding="UTF-8" standalone="no"?>
<svg width="36px" height="34px" viewBox="0 0 36 34" version="1.1" xmlns="http://www.w3.org/2000/svg" xmlns:xlink="http://www.w3.org/1999/xlink">
    <!-- Generator: Sketch 43.2 (39069) - http://www.bohemiancoding.com/sketch -->
    <title>star</title>
    <desc>Created with Sketch.</desc>
    <defs></defs>
    <g id="Page-1" stroke="none" stroke-width="1" fill="none" fill-rule="evenodd">
        <g id="star" fill="#FBC100">
            <path d="M33.4555766,13.6257089 C33.4555766,13.9029629 33.2917471,14.2054174 32.9640832,14.5330813 L26.1020794,21.2249527 L27.7277883,30.6767486 C27.7403907,30.7649658 27.7466919,30.8909885 27.7466919,31.0548204 C27.7466919,31.319472 27.68053,31.5431623 27.5482042,31.7258979 C27.4158784,31.9086336 27.2236938,32 26.9716446,32 C26.7321979,32 26.4801526,31.9243864 26.2155009,31.7731569 L17.7277883,27.3119093 L9.24007561,31.7731569 C8.96282155,31.9243864 8.71077618,32 8.48393195,32 C8.21928034,32 8.02079461,31.9086336 7.88846881,31.7258979 C7.75614301,31.5431623 7.6899811,31.319472 7.6899811,31.0548204 C7.6899811,30.9792057 7.70258336,30.853183 7.72778828,30.6767486 L9.35349716,21.2249527 L2.47258979,14.5330813 C2.15752836,14.1928149 2,13.8903605 2,13.6257089 C2,13.159418 2.35286352,12.8695658 3.05860113,12.7561437 L12.5482042,11.3761815 L16.8015123,2.77504726 C17.040959,2.2583465 17.3497146,2 17.7277883,2 C18.105862,2 18.4146176,2.2583465 18.6540643,2.77504726 L22.9073724,11.3761815 L32.3969754,12.7561437 C33.102713,12.8695658 33.4555766,13.159418 33.4555766,13.6257089 Z"></path>
        </g>
    </g>
</svg>